solid OpenSCAD_Model
  facet normal -0.000000 -0.000000 -1.000000
    outer loop
      vertex 66.052758 -0.973071 0.000000
      vertex 66.052758 0.973071 0.000000
      vertex 66.471121 -2.873714 0.000000
    endloop
  endfacet
  facet normal 0.000000 0.000000 -1.000000
    outer loop
      vertex 66.471121 -2.873714 0.000000
      vertex 66.052758 0.973071 0.000000
      vertex 66.471121 2.873714 0.000000
    endloop
  endfacet
  facet normal 0.000000 -0.000000 -1.000000
    outer loop
      vertex 66.471121 -2.873714 0.000000
      vertex 66.471121 2.873714 0.000000
      vertex 67.288285 4.639985 0.000000
    endloop
  endfacet
  facet normal 0.000000 0.000000 -1.000000
    outer loop
      vertex 66.471121 -2.873714 0.000000
      vertex 67.288285 4.639985 0.000000
      vertex 68.466041 6.189295 0.000000
    endloop
  endfacet
  facet normal 0.000000 0.000000 -1.000000
    outer loop
      vertex 66.471121 -2.873714 0.000000
      vertex 68.466041 6.189295 0.000000
      vertex 69.949316 7.449201 0.000000
    endloop
  endfacet
  facet normal 0.000000 0.000000 -1.000000
    outer loop
      vertex 66.471121 -2.873714 0.000000
      vertex 69.949316 7.449201 0.000000
      vertex 71.668757 8.360790 0.000000
    endloop
  endfacet
  facet normal 0.000000 0.000000 -1.000000
    outer loop
      vertex 66.471121 -2.873714 0.000000
      vertex 71.668757 8.360790 0.000000
      vertex 73.543962 8.881439 0.000000
    endloop
  endfacet
  facet normal 0.000000 0.000000 -1.000000
    outer loop
      vertex 66.471121 -2.873714 0.000000
      vertex 73.543962 8.881439 0.000000
      vertex 75.487250 8.986801 0.000000
    endloop
  endfacet
  facet normal 0.000000 0.000000 -1.000000
    outer loop
      vertex 66.471121 -2.873714 0.000000
      vertex 75.487250 8.986801 0.000000
      vertex 77.407755 8.671950 0.000000
    endloop
  endfacet
  facet normal 0.000000 0.000000 -1.000000
    outer loop
      vertex 66.471121 -2.873714 0.000000
      vertex 77.407755 8.671950 0.000000
      vertex 79.215676 7.951608 0.000000
    endloop
  endfacet
  facet normal 0.000000 0.000000 -1.000000
    outer loop
      vertex 66.471121 -2.873714 0.000000
      vertex 79.215676 7.951608 0.000000
      vertex 80.826477 6.859458 0.000000
    endloop
  endfacet
  facet normal 0.000000 0.000000 -1.000000
    outer loop
      vertex 66.471121 -2.873714 0.000000
      vertex 80.826477 6.859458 0.000000
      vertex 82.164838 5.446568 0.000000
    endloop
  endfacet
  facet normal 0.000000 0.000000 -1.000000
    outer loop
      vertex 66.471121 -2.873714 0.000000
      vertex 82.164838 5.446568 0.000000
      vertex 83.168179 3.779002 0.000000
    endloop
  endfacet
  facet normal 0.000000 0.000000 -1.000000
    outer loop
      vertex 66.471121 -2.873714 0.000000
      vertex 83.168179 3.779002 0.000000
      vertex 83.789585 1.934734 0.000000
    endloop
  endfacet
  facet normal 0.000000 0.000000 -1.000000
    outer loop
      vertex 66.471121 -2.873714 0.000000
      vertex 83.789585 1.934734 0.000000
      vertex 84.000000 0.000000 0.000000
    endloop
  endfacet
  facet normal 0.000000 0.000000 -1.000000
    outer loop
      vertex 66.471121 -2.873714 0.000000
      vertex 84.000000 0.000000 0.000000
      vertex 83.789585 -1.934734 0.000000
    endloop
  endfacet
  facet normal -0.000000 0.000000 -1.000000
    outer loop
      vertex 66.471121 -2.873714 0.000000
      vertex 83.789585 -1.934734 0.000000
      vertex 83.168179 -3.779002 0.000000
    endloop
  endfacet
  facet normal 0.000000 0.000000 -1.000000
    outer loop
      vertex 66.471121 -2.873714 0.000000
      vertex 83.168179 -3.779002 0.000000
      vertex 82.164838 -5.446568 0.000000
    endloop
  endfacet
  facet normal 0.000000 0.000000 -1.000000
    outer loop
      vertex 66.471121 -2.873714 0.000000
      vertex 82.164838 -5.446568 0.000000
      vertex 80.826477 -6.859458 0.000000
    endloop
  endfacet
  facet normal 0.000000 0.000000 -1.000000
    outer loop
      vertex 66.471121 -2.873714 0.000000
      vertex 80.826477 -6.859458 0.000000
      vertex 79.215676 -7.951608 0.000000
    endloop
  endfacet
  facet normal 0.000000 0.000000 -1.000000
    outer loop
      vertex 66.471121 -2.873714 0.000000
      vertex 79.215676 -7.951608 0.000000
      vertex 77.407755 -8.671950 0.000000
    endloop
  endfacet
  facet normal 0.000000 0.000000 -1.000000
    outer loop
      vertex 66.471121 -2.873714 0.000000
      vertex 77.407755 -8.671950 0.000000
      vertex 75.487250 -8.986801 0.000000
    endloop
  endfacet
  facet normal 0.000000 0.000000 -1.000000
    outer loop
      vertex 66.471121 -2.873714 0.000000
      vertex 75.487250 -8.986801 0.000000
      vertex 73.543962 -8.881439 0.000000
    endloop
  endfacet
  facet normal 0.000000 0.000000 -1.000000
    outer loop
      vertex 66.471121 -2.873714 0.000000
      vertex 73.543962 -8.881439 0.000000
      vertex 71.668757 -8.360790 0.000000
    endloop
  endfacet
  facet normal 0.000000 0.000000 -1.000000
    outer loop
      vertex 66.471121 -2.873714 0.000000
      vertex 71.668757 -8.360790 0.000000
      vertex 69.949316 -7.449201 0.000000
    endloop
  endfacet
  facet normal 0.000000 0.000000 -1.000000
    outer loop
      vertex 66.471121 -2.873714 0.000000
      vertex 69.949316 -7.449201 0.000000
      vertex 68.466041 -6.189295 0.000000
    endloop
  endfacet
  facet normal 0.000000 0.000000 -1.000000
    outer loop
      vertex 66.471121 -2.873714 0.000000
      vertex 68.466041 -6.189295 0.000000
      vertex 67.288285 -4.639985 0.000000
    endloop
  endfacet
  facet normal -1.000000 -0.000000 -0.000000
    outer loop
      vertex 66.052758 -0.973071 0.000000
      vertex 66.052758 -0.973071 75.000000
      vertex 66.052758 0.973071 0.000000
    endloop
  endfacet
  facet normal -1.000000 0.000000 0.000000
    outer loop
      vertex 66.052758 0.973071 0.000000
      vertex 66.052758 -0.973071 75.000000
      vertex 66.052758 0.973071 75.000000
    endloop
  endfacet
  facet normal -0.976621 -0.214970 -0.000000
    outer loop
      vertex 66.052758 -0.973071 0.000000
      vertex 66.471121 -2.873714 0.000000
      vertex 66.052758 -0.973071 75.000000
    endloop
  endfacet
  facet normal -0.976621 -0.214970 0.000000
    outer loop
      vertex 66.052758 -0.973071 75.000000
      vertex 66.471121 -2.873714 0.000000
      vertex 66.471121 -2.873714 75.000000
    endloop
  endfacet
  facet normal -0.907575 -0.419889 -0.000000
    outer loop
      vertex 66.471121 -2.873714 0.000000
      vertex 67.288285 -4.639985 0.000000
      vertex 66.471121 -2.873714 75.000000
    endloop
  endfacet
  facet normal -0.907575 -0.419889 0.000000
    outer loop
      vertex 66.471121 -2.873714 75.000000
      vertex 67.288285 -4.639985 0.000000
      vertex 67.288285 -4.639985 75.000000
    endloop
  endfacet
  facet normal -0.796093 -0.605175 -0.000000
    outer loop
      vertex 67.288285 -4.639985 0.000000
      vertex 68.466041 -6.189295 0.000000
      vertex 67.288285 -4.639985 75.000000
    endloop
  endfacet
  facet normal -0.796093 -0.605175 0.000000
    outer loop
      vertex 67.288285 -4.639985 75.000000
      vertex 68.466041 -6.189295 0.000000
      vertex 68.466041 -6.189295 75.000000
    endloop
  endfacet
  facet normal -0.647387 -0.762162 0.000000
    outer loop
      vertex 68.466041 -6.189295 75.000000
      vertex 68.466041 -6.189295 0.000000
      vertex 69.949316 -7.449201 0.000000
    endloop
  endfacet
  facet normal -0.647387 -0.762162 0.000000
    outer loop
      vertex 69.949316 -7.449201 75.000000
      vertex 68.466041 -6.189295 75.000000
      vertex 69.949316 -7.449201 0.000000
    endloop
  endfacet
  facet normal -0.468408 -0.883512 0.000000
    outer loop
      vertex 69.949316 -7.449201 75.000000
      vertex 69.949316 -7.449201 0.000000
      vertex 71.668757 -8.360790 0.000000
    endloop
  endfacet
  facet normal -0.468408 -0.883512 0.000000
    outer loop
      vertex 71.668757 -8.360790 75.000000
      vertex 69.949316 -7.449201 75.000000
      vertex 71.668757 -8.360790 0.000000
    endloop
  endfacet
  facet normal -0.267529 -0.963550 0.000000
    outer loop
      vertex 71.668757 -8.360790 75.000000
      vertex 71.668757 -8.360790 0.000000
      vertex 73.543962 -8.881439 0.000000
    endloop
  endfacet
  facet normal -0.267529 -0.963550 0.000000
    outer loop
      vertex 73.543962 -8.881439 75.000000
      vertex 71.668757 -8.360790 75.000000
      vertex 73.543962 -8.881439 0.000000
    endloop
  endfacet
  facet normal -0.054139 -0.998533 0.000000
    outer loop
      vertex 73.543962 -8.881439 75.000000
      vertex 73.543962 -8.881439 0.000000
      vertex 75.487250 -8.986801 0.000000
    endloop
  endfacet
  facet normal -0.054139 -0.998533 0.000000
    outer loop
      vertex 75.487250 -8.986801 75.000000
      vertex 73.543962 -8.881439 75.000000
      vertex 75.487250 -8.986801 0.000000
    endloop
  endfacet
  facet normal 0.161782 -0.986827 0.000000
    outer loop
      vertex 75.487250 -8.986801 75.000000
      vertex 75.487250 -8.986801 0.000000
      vertex 77.407755 -8.671950 0.000000
    endloop
  endfacet
  facet normal 0.161782 -0.986827 0.000000
    outer loop
      vertex 77.407755 -8.671950 75.000000
      vertex 75.487250 -8.986801 75.000000
      vertex 77.407755 -8.671950 0.000000
    endloop
  endfacet
  facet normal 0.370138 -0.928977 0.000000
    outer loop
      vertex 77.407755 -8.671950 75.000000
      vertex 77.407755 -8.671950 0.000000
      vertex 79.215676 -7.951608 0.000000
    endloop
  endfacet
  facet normal 0.370138 -0.928977 0.000000
    outer loop
      vertex 79.215676 -7.951608 75.000000
      vertex 77.407755 -8.671950 75.000000
      vertex 79.215676 -7.951608 0.000000
    endloop
  endfacet
  facet normal 0.561187 -0.827689 0.000000
    outer loop
      vertex 79.215676 -7.951608 75.000000
      vertex 79.215676 -7.951608 0.000000
      vertex 80.826477 -6.859458 0.000000
    endloop
  endfacet
  facet normal 0.561187 -0.827689 0.000000
    outer loop
      vertex 80.826477 -6.859458 75.000000
      vertex 79.215676 -7.951608 75.000000
      vertex 80.826477 -6.859458 0.000000
    endloop
  endfacet
  facet normal 0.725995 -0.687700 0.000000
    outer loop
      vertex 80.826477 -6.859458 75.000000
      vertex 80.826477 -6.859458 0.000000
      vertex 82.164838 -5.446568 0.000000
    endloop
  endfacet
  facet normal 0.725995 -0.687700 0.000000
    outer loop
      vertex 82.164838 -5.446568 75.000000
      vertex 80.826477 -6.859458 75.000000
      vertex 82.164838 -5.446568 0.000000
    endloop
  endfacet
  facet normal 0.856857 -0.515554 0.000000
    outer loop
      vertex 82.164838 -5.446568 75.000000
      vertex 82.164838 -5.446568 0.000000
      vertex 83.168179 -3.779002 0.000000
    endloop
  endfacet
  facet normal 0.856857 -0.515554 0.000000
    outer loop
      vertex 83.168179 -3.779002 75.000000
      vertex 82.164838 -5.446568 75.000000
      vertex 83.168179 -3.779002 0.000000
    endloop
  endfacet
  facet normal 0.947653 -0.319301 0.000000
    outer loop
      vertex 83.168179 -3.779002 75.000000
      vertex 83.168179 -3.779002 0.000000
      vertex 83.789585 -1.934734 0.000000
    endloop
  endfacet
  facet normal 0.947653 -0.319301 0.000000
    outer loop
      vertex 83.789585 -1.934734 75.000000
      vertex 83.168179 -3.779002 75.000000
      vertex 83.789585 -1.934734 0.000000
    endloop
  endfacet
  facet normal 0.994138 -0.108119 0.000000
    outer loop
      vertex 83.789585 -1.934734 75.000000
      vertex 83.789585 -1.934734 0.000000
      vertex 84.000000 0.000000 0.000000
    endloop
  endfacet
  facet normal 0.994138 -0.108119 0.000000
    outer loop
      vertex 84.000000 0.000000 75.000000
      vertex 83.789585 -1.934734 75.000000
      vertex 84.000000 0.000000 0.000000
    endloop
  endfacet
  facet normal 0.994138 0.108119 0.000000
    outer loop
      vertex 84.000000 0.000000 0.000000
      vertex 83.789585 1.934734 0.000000
      vertex 83.789585 1.934734 75.000000
    endloop
  endfacet
  facet normal 0.994138 0.108119 -0.000000
    outer loop
      vertex 84.000000 0.000000 75.000000
      vertex 84.000000 0.000000 0.000000
      vertex 83.789585 1.934734 75.000000
    endloop
  endfacet
  facet normal 0.947653 0.319301 0.000000
    outer loop
      vertex 83.789585 1.934734 0.000000
      vertex 83.168179 3.779002 0.000000
      vertex 83.168179 3.779002 75.000000
    endloop
  endfacet
  facet normal 0.947653 0.319301 -0.000000
    outer loop
      vertex 83.789585 1.934734 75.000000
      vertex 83.789585 1.934734 0.000000
      vertex 83.168179 3.779002 75.000000
    endloop
  endfacet
  facet normal 0.856857 0.515554 0.000000
    outer loop
      vertex 83.168179 3.779002 0.000000
      vertex 82.164838 5.446568 0.000000
      vertex 82.164838 5.446568 75.000000
    endloop
  endfacet
  facet normal 0.856857 0.515554 -0.000000
    outer loop
      vertex 83.168179 3.779002 75.000000
      vertex 83.168179 3.779002 0.000000
      vertex 82.164838 5.446568 75.000000
    endloop
  endfacet
  facet normal 0.725995 0.687700 0.000000
    outer loop
      vertex 82.164838 5.446568 0.000000
      vertex 80.826477 6.859458 0.000000
      vertex 80.826477 6.859458 75.000000
    endloop
  endfacet
  facet normal 0.725995 0.687700 -0.000000
    outer loop
      vertex 82.164838 5.446568 75.000000
      vertex 82.164838 5.446568 0.000000
      vertex 80.826477 6.859458 75.000000
    endloop
  endfacet
  facet normal 0.561187 0.827689 0.000000
    outer loop
      vertex 79.215676 7.951608 0.000000
      vertex 79.215676 7.951608 75.000000
      vertex 80.826477 6.859458 0.000000
    endloop
  endfacet
  facet normal 0.561187 0.827689 0.000000
    outer loop
      vertex 80.826477 6.859458 0.000000
      vertex 79.215676 7.951608 75.000000
      vertex 80.826477 6.859458 75.000000
    endloop
  endfacet
  facet normal 0.370138 0.928977 0.000000
    outer loop
      vertex 77.407755 8.671950 0.000000
      vertex 77.407755 8.671950 75.000000
      vertex 79.215676 7.951608 0.000000
    endloop
  endfacet
  facet normal 0.370138 0.928977 0.000000
    outer loop
      vertex 79.215676 7.951608 0.000000
      vertex 77.407755 8.671950 75.000000
      vertex 79.215676 7.951608 75.000000
    endloop
  endfacet
  facet normal 0.161782 0.986827 0.000000
    outer loop
      vertex 75.487250 8.986801 0.000000
      vertex 75.487250 8.986801 75.000000
      vertex 77.407755 8.671950 0.000000
    endloop
  endfacet
  facet normal 0.161782 0.986827 0.000000
    outer loop
      vertex 77.407755 8.671950 0.000000
      vertex 75.487250 8.986801 75.000000
      vertex 77.407755 8.671950 75.000000
    endloop
  endfacet
  facet normal -0.054139 0.998533 0.000000
    outer loop
      vertex 73.543962 8.881439 0.000000
      vertex 73.543962 8.881439 75.000000
      vertex 75.487250 8.986801 0.000000
    endloop
  endfacet
  facet normal -0.054139 0.998533 0.000000
    outer loop
      vertex 75.487250 8.986801 0.000000
      vertex 73.543962 8.881439 75.000000
      vertex 75.487250 8.986801 75.000000
    endloop
  endfacet
  facet normal -0.267529 0.963550 0.000000
    outer loop
      vertex 71.668757 8.360790 0.000000
      vertex 71.668757 8.360790 75.000000
      vertex 73.543962 8.881439 0.000000
    endloop
  endfacet
  facet normal -0.267529 0.963550 0.000000
    outer loop
      vertex 73.543962 8.881439 0.000000
      vertex 71.668757 8.360790 75.000000
      vertex 73.543962 8.881439 75.000000
    endloop
  endfacet
  facet normal -0.468408 0.883512 0.000000
    outer loop
      vertex 69.949316 7.449201 0.000000
      vertex 69.949316 7.449201 75.000000
      vertex 71.668757 8.360790 0.000000
    endloop
  endfacet
  facet normal -0.468408 0.883512 0.000000
    outer loop
      vertex 71.668757 8.360790 0.000000
      vertex 69.949316 7.449201 75.000000
      vertex 71.668757 8.360790 75.000000
    endloop
  endfacet
  facet normal -0.647387 0.762162 0.000000
    outer loop
      vertex 68.466041 6.189295 0.000000
      vertex 68.466041 6.189295 75.000000
      vertex 69.949316 7.449201 0.000000
    endloop
  endfacet
  facet normal -0.647387 0.762162 0.000000
    outer loop
      vertex 69.949316 7.449201 0.000000
      vertex 68.466041 6.189295 75.000000
      vertex 69.949316 7.449201 75.000000
    endloop
  endfacet
  facet normal -0.796093 0.605175 0.000000
    outer loop
      vertex 67.288285 4.639985 0.000000
      vertex 67.288285 4.639985 75.000000
      vertex 68.466041 6.189295 0.000000
    endloop
  endfacet
  facet normal -0.796093 0.605175 0.000000
    outer loop
      vertex 68.466041 6.189295 0.000000
      vertex 67.288285 4.639985 75.000000
      vertex 68.466041 6.189295 75.000000
    endloop
  endfacet
  facet normal -0.907575 0.419889 0.000000
    outer loop
      vertex 66.471121 2.873714 0.000000
      vertex 66.471121 2.873714 75.000000
      vertex 67.288285 4.639985 0.000000
    endloop
  endfacet
  facet normal -0.907575 0.419889 0.000000
    outer loop
      vertex 67.288285 4.639985 0.000000
      vertex 66.471121 2.873714 75.000000
      vertex 67.288285 4.639985 75.000000
    endloop
  endfacet
  facet normal -0.976621 0.214970 0.000000
    outer loop
      vertex 66.052758 0.973071 0.000000
      vertex 66.052758 0.973071 75.000000
      vertex 66.471121 2.873714 0.000000
    endloop
  endfacet
  facet normal -0.976621 0.214970 0.000000
    outer loop
      vertex 66.471121 2.873714 0.000000
      vertex 66.052758 0.973071 75.000000
      vertex 66.471121 2.873714 75.000000
    endloop
  endfacet
  facet normal 0.000000 -0.000000 1.000000
    outer loop
      vertex 66.052758 0.973071 75.000000
      vertex 66.052758 -0.973071 75.000000
      vertex 66.471121 -2.873714 75.000000
    endloop
  endfacet
  facet normal 0.000000 0.000000 1.000000
    outer loop
      vertex 68.466041 -6.189295 75.000000
      vertex 66.052758 0.973071 75.000000
      vertex 67.288285 -4.639985 75.000000
    endloop
  endfacet
  facet normal 0.000000 0.000000 1.000000
    outer loop
      vertex 67.288285 -4.639985 75.000000
      vertex 66.052758 0.973071 75.000000
      vertex 66.471121 -2.873714 75.000000
    endloop
  endfacet
  facet normal 0.000000 0.000000 1.000000
    outer loop
      vertex 69.949316 -7.449201 75.000000
      vertex 66.052758 0.973071 75.000000
      vertex 68.466041 -6.189295 75.000000
    endloop
  endfacet
  facet normal 0.000000 0.000000 1.000000
    outer loop
      vertex 71.668757 -8.360790 75.000000
      vertex 66.052758 0.973071 75.000000
      vertex 69.949316 -7.449201 75.000000
    endloop
  endfacet
  facet normal 0.000000 0.000000 1.000000
    outer loop
      vertex 73.543962 -8.881439 75.000000
      vertex 66.052758 0.973071 75.000000
      vertex 71.668757 -8.360790 75.000000
    endloop
  endfacet
  facet normal 0.000000 0.000000 1.000000
    outer loop
      vertex 75.487250 -8.986801 75.000000
      vertex 66.052758 0.973071 75.000000
      vertex 73.543962 -8.881439 75.000000
    endloop
  endfacet
  facet normal -0.000000 0.000000 1.000000
    outer loop
      vertex 77.407755 -8.671950 75.000000
      vertex 66.052758 0.973071 75.000000
      vertex 75.487250 -8.986801 75.000000
    endloop
  endfacet
  facet normal -0.000000 -0.000000 1.000000
    outer loop
      vertex 71.464466 -3.535534 75.000000
      vertex 66.052758 0.973071 75.000000
      vertex 77.407755 -8.671950 75.000000
    endloop
  endfacet
  facet normal -0.000000 0.000000 1.000000
    outer loop
      vertex 70.380602 1.913417 75.000000
      vertex 71.464466 3.535534 75.000000
      vertex 66.052758 0.973071 75.000000
    endloop
  endfacet
  facet normal 0.000000 0.000000 1.000000
    outer loop
      vertex 78.535534 3.535534 75.000000
      vertex 79.619398 1.913417 75.000000
      vertex 83.168179 3.779002 75.000000
    endloop
  endfacet
  facet normal 0.000000 0.000000 1.000000
    outer loop
      vertex 76.913417 4.619398 75.000000
      vertex 78.535534 3.535534 75.000000
      vertex 82.164838 5.446568 75.000000
    endloop
  endfacet
  facet normal 0.000000 -0.000000 1.000000
    outer loop
      vertex 77.407755 8.671950 75.000000
      vertex 66.052758 0.973071 75.000000
      vertex 79.215676 7.951608 75.000000
    endloop
  endfacet
  facet normal 0.000000 -0.000000 1.000000
    outer loop
      vertex 75.487250 8.986801 75.000000
      vertex 66.052758 0.973071 75.000000
      vertex 77.407755 8.671950 75.000000
    endloop
  endfacet
  facet normal 0.000000 -0.000000 1.000000
    outer loop
      vertex 73.543962 8.881439 75.000000
      vertex 66.052758 0.973071 75.000000
      vertex 75.487250 8.986801 75.000000
    endloop
  endfacet
  facet normal 0.000000 -0.000000 1.000000
    outer loop
      vertex 71.668757 8.360790 75.000000
      vertex 66.052758 0.973071 75.000000
      vertex 73.543962 8.881439 75.000000
    endloop
  endfacet
  facet normal 0.000000 -0.000000 1.000000
    outer loop
      vertex 69.949316 7.449201 75.000000
      vertex 66.052758 0.973071 75.000000
      vertex 71.668757 8.360790 75.000000
    endloop
  endfacet
  facet normal 0.000000 -0.000000 1.000000
    outer loop
      vertex 68.466041 6.189295 75.000000
      vertex 66.052758 0.973071 75.000000
      vertex 69.949316 7.449201 75.000000
    endloop
  endfacet
  facet normal 0.000000 -0.000000 1.000000
    outer loop
      vertex 67.288285 4.639985 75.000000
      vertex 66.052758 0.973071 75.000000
      vertex 68.466041 6.189295 75.000000
    endloop
  endfacet
  facet normal 0.000000 -0.000000 1.000000
    outer loop
      vertex 66.471121 2.873714 75.000000
      vertex 66.052758 0.973071 75.000000
      vertex 67.288285 4.639985 75.000000
    endloop
  endfacet
  facet normal 0.000000 -0.000000 1.000000
    outer loop
      vertex 79.619398 -1.913417 75.000000
      vertex 78.535534 -3.535534 75.000000
      vertex 83.168179 -3.779002 75.000000
    endloop
  endfacet
  facet normal 0.000000 -0.000000 1.000000
    outer loop
      vertex 78.535534 -3.535534 75.000000
      vertex 76.913417 -4.619398 75.000000
      vertex 82.164838 -5.446568 75.000000
    endloop
  endfacet
  facet normal 0.000000 0.000000 1.000000
    outer loop
      vertex 79.619398 1.913417 75.000000
      vertex 80.000000 0.000000 75.000000
      vertex 84.000000 0.000000 75.000000
    endloop
  endfacet
  facet normal 0.000000 0.000000 1.000000
    outer loop
      vertex 73.086583 4.619398 75.000000
      vertex 66.052758 0.973071 75.000000
      vertex 71.464466 3.535534 75.000000
    endloop
  endfacet
  facet normal 0.000000 0.000000 1.000000
    outer loop
      vertex 75.000000 5.000000 75.000000
      vertex 76.913417 4.619398 75.000000
      vertex 80.826477 6.859458 75.000000
    endloop
  endfacet
  facet normal 0.000000 0.000000 1.000000
    outer loop
      vertex 79.215676 7.951608 75.000000
      vertex 66.052758 0.973071 75.000000
      vertex 73.086583 4.619398 75.000000
    endloop
  endfacet
  facet normal 0.000000 -0.000000 1.000000
    outer loop
      vertex 79.215676 7.951608 75.000000
      vertex 75.000000 5.000000 75.000000
      vertex 80.826477 6.859458 75.000000
    endloop
  endfacet
  facet normal 0.000000 -0.000000 1.000000
    outer loop
      vertex 80.826477 6.859458 75.000000
      vertex 76.913417 4.619398 75.000000
      vertex 82.164838 5.446568 75.000000
    endloop
  endfacet
  facet normal 0.000000 0.000000 1.000000
    outer loop
      vertex 73.086583 4.619398 75.000000
      vertex 75.000000 5.000000 75.000000
      vertex 79.215676 7.951608 75.000000
    endloop
  endfacet
  facet normal 0.000000 -0.000000 1.000000
    outer loop
      vertex 82.164838 5.446568 75.000000
      vertex 78.535534 3.535534 75.000000
      vertex 83.168179 3.779002 75.000000
    endloop
  endfacet
  facet normal 0.000000 -0.000000 1.000000
    outer loop
      vertex 83.168179 3.779002 75.000000
      vertex 79.619398 1.913417 75.000000
      vertex 83.789585 1.934734 75.000000
    endloop
  endfacet
  facet normal 0.000000 -0.000000 1.000000
    outer loop
      vertex 80.000000 0.000000 75.000000
      vertex 79.619398 -1.913417 75.000000
      vertex 83.789585 -1.934734 75.000000
    endloop
  endfacet
  facet normal 0.000000 0.000000 1.000000
    outer loop
      vertex 84.000000 0.000000 75.000000
      vertex 80.000000 0.000000 75.000000
      vertex 83.789585 -1.934734 75.000000
    endloop
  endfacet
  facet normal -0.000000 0.000000 1.000000
    outer loop
      vertex 83.789585 -1.934734 75.000000
      vertex 79.619398 -1.913417 75.000000
      vertex 83.168179 -3.779002 75.000000
    endloop
  endfacet
  facet normal -0.000000 0.000000 1.000000
    outer loop
      vertex 83.168179 -3.779002 75.000000
      vertex 78.535534 -3.535534 75.000000
      vertex 82.164838 -5.446568 75.000000
    endloop
  endfacet
  facet normal 0.000000 0.000000 1.000000
    outer loop
      vertex 79.619398 1.913417 75.000000
      vertex 84.000000 0.000000 75.000000
      vertex 83.789585 1.934734 75.000000
    endloop
  endfacet
  facet normal -0.000000 0.000000 1.000000
    outer loop
      vertex 82.164838 -5.446568 75.000000
      vertex 76.913417 -4.619398 75.000000
      vertex 80.826477 -6.859458 75.000000
    endloop
  endfacet
  facet normal -0.000000 0.000000 1.000000
    outer loop
      vertex 80.826477 -6.859458 75.000000
      vertex 75.000000 -5.000000 75.000000
      vertex 79.215676 -7.951608 75.000000
    endloop
  endfacet
  facet normal -0.000000 0.000000 1.000000
    outer loop
      vertex 79.215676 -7.951608 75.000000
      vertex 73.086583 -4.619398 75.000000
      vertex 77.407755 -8.671950 75.000000
    endloop
  endfacet
  facet normal 0.000000 -0.000000 1.000000
    outer loop
      vertex 76.913417 -4.619398 75.000000
      vertex 75.000000 -5.000000 75.000000
      vertex 80.826477 -6.859458 75.000000
    endloop
  endfacet
  facet normal -0.000000 -0.000000 1.000000
    outer loop
      vertex 73.086583 -4.619398 75.000000
      vertex 71.464466 -3.535534 75.000000
      vertex 77.407755 -8.671950 75.000000
    endloop
  endfacet
  facet normal 0.000000 0.000000 1.000000
    outer loop
      vertex 71.464466 -3.535534 75.000000
      vertex 70.380602 -1.913417 75.000000
      vertex 66.052758 0.973071 75.000000
    endloop
  endfacet
  facet normal -0.000000 -0.000000 1.000000
    outer loop
      vertex 75.000000 -5.000000 75.000000
      vertex 73.086583 -4.619398 75.000000
      vertex 79.215676 -7.951608 75.000000
    endloop
  endfacet
  facet normal 0.000000 0.000000 1.000000
    outer loop
      vertex 70.380602 -1.913417 75.000000
      vertex 70.000000 0.000000 75.000000
      vertex 66.052758 0.973071 75.000000
    endloop
  endfacet
  facet normal 0.000000 0.000000 1.000000
    outer loop
      vertex 70.000000 0.000000 75.000000
      vertex 70.380602 1.913417 75.000000
      vertex 66.052758 0.973071 75.000000
    endloop
  endfacet
  facet normal 0.980785 0.195090 0.000000
    outer loop
      vertex 70.000000 0.000000 75.000000
      vertex 70.380602 -1.913417 75.000000
      vertex 70.380602 -1.913417 5.000000
    endloop
  endfacet
  facet normal 0.980785 0.195090 0.000000
    outer loop
      vertex 70.000000 0.000000 5.000000
      vertex 70.000000 0.000000 75.000000
      vertex 70.380602 -1.913417 5.000000
    endloop
  endfacet
  facet normal 0.831470 0.555570 0.000000
    outer loop
      vertex 70.380602 -1.913417 75.000000
      vertex 71.464466 -3.535534 75.000000
      vertex 71.464466 -3.535534 5.000000
    endloop
  endfacet
  facet normal 0.831470 0.555570 0.000000
    outer loop
      vertex 70.380602 -1.913417 5.000000
      vertex 70.380602 -1.913417 75.000000
      vertex 71.464466 -3.535534 5.000000
    endloop
  endfacet
  facet normal 0.555570 0.831470 -0.000000
    outer loop
      vertex 73.086583 -4.619398 75.000000
      vertex 73.086583 -4.619398 5.000000
      vertex 71.464466 -3.535534 75.000000
    endloop
  endfacet
  facet normal 0.555570 0.831470 -0.000000
    outer loop
      vertex 71.464466 -3.535534 75.000000
      vertex 73.086583 -4.619398 5.000000
      vertex 71.464466 -3.535534 5.000000
    endloop
  endfacet
  facet normal 0.195090 0.980785 -0.000000
    outer loop
      vertex 75.000000 -5.000000 75.000000
      vertex 75.000000 -5.000000 5.000000
      vertex 73.086583 -4.619398 75.000000
    endloop
  endfacet
  facet normal 0.195090 0.980785 -0.000000
    outer loop
      vertex 73.086583 -4.619398 75.000000
      vertex 75.000000 -5.000000 5.000000
      vertex 73.086583 -4.619398 5.000000
    endloop
  endfacet
  facet normal -0.195090 0.980785 0.000000
    outer loop
      vertex 76.913417 -4.619398 75.000000
      vertex 76.913417 -4.619398 5.000000
      vertex 75.000000 -5.000000 75.000000
    endloop
  endfacet
  facet normal -0.195090 0.980785 0.000000
    outer loop
      vertex 75.000000 -5.000000 75.000000
      vertex 76.913417 -4.619398 5.000000
      vertex 75.000000 -5.000000 5.000000
    endloop
  endfacet
  facet normal -0.555570 0.831470 0.000000
    outer loop
      vertex 78.535534 -3.535534 75.000000
      vertex 78.535534 -3.535534 5.000000
      vertex 76.913417 -4.619398 75.000000
    endloop
  endfacet
  facet normal -0.555570 0.831470 0.000000
    outer loop
      vertex 76.913417 -4.619398 75.000000
      vertex 78.535534 -3.535534 5.000000
      vertex 76.913417 -4.619398 5.000000
    endloop
  endfacet
  facet normal -0.831470 0.555570 0.000000
    outer loop
      vertex 79.619398 -1.913417 75.000000
      vertex 79.619398 -1.913417 5.000000
      vertex 78.535534 -3.535534 75.000000
    endloop
  endfacet
  facet normal -0.831470 0.555570 0.000000
    outer loop
      vertex 78.535534 -3.535534 75.000000
      vertex 79.619398 -1.913417 5.000000
      vertex 78.535534 -3.535534 5.000000
    endloop
  endfacet
  facet normal -0.980785 0.195090 0.000000
    outer loop
      vertex 80.000000 0.000000 75.000000
      vertex 80.000000 0.000000 5.000000
      vertex 79.619398 -1.913417 75.000000
    endloop
  endfacet
  facet normal -0.980785 0.195090 0.000000
    outer loop
      vertex 79.619398 -1.913417 75.000000
      vertex 80.000000 0.000000 5.000000
      vertex 79.619398 -1.913417 5.000000
    endloop
  endfacet
  facet normal -0.980785 -0.195090 0.000000
    outer loop
      vertex 80.000000 0.000000 75.000000
      vertex 79.619398 1.913417 75.000000
      vertex 80.000000 0.000000 5.000000
    endloop
  endfacet
  facet normal -0.980785 -0.195090 0.000000
    outer loop
      vertex 80.000000 0.000000 5.000000
      vertex 79.619398 1.913417 75.000000
      vertex 79.619398 1.913417 5.000000
    endloop
  endfacet
  facet normal -0.831470 -0.555570 0.000000
    outer loop
      vertex 79.619398 1.913417 75.000000
      vertex 78.535534 3.535534 75.000000
      vertex 79.619398 1.913417 5.000000
    endloop
  endfacet
  facet normal -0.831470 -0.555570 0.000000
    outer loop
      vertex 79.619398 1.913417 5.000000
      vertex 78.535534 3.535534 75.000000
      vertex 78.535534 3.535534 5.000000
    endloop
  endfacet
  facet normal -0.555570 -0.831470 -0.000000
    outer loop
      vertex 78.535534 3.535534 5.000000
      vertex 78.535534 3.535534 75.000000
      vertex 76.913417 4.619398 75.000000
    endloop
  endfacet
  facet normal -0.555570 -0.831470 -0.000000
    outer loop
      vertex 76.913417 4.619398 5.000000
      vertex 78.535534 3.535534 5.000000
      vertex 76.913417 4.619398 75.000000
    endloop
  endfacet
  facet normal -0.195090 -0.980785 -0.000000
    outer loop
      vertex 76.913417 4.619398 5.000000
      vertex 76.913417 4.619398 75.000000
      vertex 75.000000 5.000000 75.000000
    endloop
  endfacet
  facet normal -0.195090 -0.980785 -0.000000
    outer loop
      vertex 75.000000 5.000000 5.000000
      vertex 76.913417 4.619398 5.000000
      vertex 75.000000 5.000000 75.000000
    endloop
  endfacet
  facet normal 0.195090 -0.980785 0.000000
    outer loop
      vertex 75.000000 5.000000 5.000000
      vertex 75.000000 5.000000 75.000000
      vertex 73.086583 4.619398 75.000000
    endloop
  endfacet
  facet normal 0.195090 -0.980785 0.000000
    outer loop
      vertex 73.086583 4.619398 5.000000
      vertex 75.000000 5.000000 5.000000
      vertex 73.086583 4.619398 75.000000
    endloop
  endfacet
  facet normal 0.555570 -0.831470 0.000000
    outer loop
      vertex 73.086583 4.619398 5.000000
      vertex 73.086583 4.619398 75.000000
      vertex 71.464466 3.535534 75.000000
    endloop
  endfacet
  facet normal 0.555570 -0.831470 0.000000
    outer loop
      vertex 71.464466 3.535534 5.000000
      vertex 73.086583 4.619398 5.000000
      vertex 71.464466 3.535534 75.000000
    endloop
  endfacet
  facet normal 0.831470 -0.555570 0.000000
    outer loop
      vertex 71.464466 3.535534 5.000000
      vertex 71.464466 3.535534 75.000000
      vertex 70.380602 1.913417 75.000000
    endloop
  endfacet
  facet normal 0.831470 -0.555570 0.000000
    outer loop
      vertex 70.380602 1.913417 5.000000
      vertex 71.464466 3.535534 5.000000
      vertex 70.380602 1.913417 75.000000
    endloop
  endfacet
  facet normal 0.980785 -0.195090 0.000000
    outer loop
      vertex 70.380602 1.913417 5.000000
      vertex 70.380602 1.913417 75.000000
      vertex 70.000000 0.000000 75.000000
    endloop
  endfacet
  facet normal 0.980785 -0.195090 0.000000
    outer loop
      vertex 70.000000 0.000000 5.000000
      vertex 70.380602 1.913417 5.000000
      vertex 70.000000 0.000000 75.000000
    endloop
  endfacet
  facet normal 0.000000 0.000000 1.000000
    outer loop
      vertex 70.380602 -1.913417 5.000000
      vertex 71.464466 -3.535534 5.000000
      vertex 73.086583 -4.619398 5.000000
    endloop
  endfacet
  facet normal -0.000000 0.000000 1.000000
    outer loop
      vertex 76.913417 -4.619398 5.000000
      vertex 70.380602 -1.913417 5.000000
      vertex 75.000000 -5.000000 5.000000
    endloop
  endfacet
  facet normal 0.000000 0.000000 1.000000
    outer loop
      vertex 75.000000 -5.000000 5.000000
      vertex 70.380602 -1.913417 5.000000
      vertex 73.086583 -4.619398 5.000000
    endloop
  endfacet
  facet normal -0.000000 0.000000 1.000000
    outer loop
      vertex 78.535534 -3.535534 5.000000
      vertex 70.380602 -1.913417 5.000000
      vertex 76.913417 -4.619398 5.000000
    endloop
  endfacet
  facet normal 0.000000 0.000000 1.000000
    outer loop
      vertex 79.619398 -1.913417 5.000000
      vertex 70.380602 -1.913417 5.000000
      vertex 78.535534 -3.535534 5.000000
    endloop
  endfacet
  facet normal 0.000000 0.000000 1.000000
    outer loop
      vertex 80.000000 0.000000 5.000000
      vertex 70.380602 -1.913417 5.000000
      vertex 79.619398 -1.913417 5.000000
    endloop
  endfacet
  facet normal 0.000000 -0.000000 1.000000
    outer loop
      vertex 79.619398 1.913417 5.000000
      vertex 70.380602 -1.913417 5.000000
      vertex 80.000000 0.000000 5.000000
    endloop
  endfacet
  facet normal 0.000000 -0.000000 1.000000
    outer loop
      vertex 78.535534 3.535534 5.000000
      vertex 70.380602 -1.913417 5.000000
      vertex 79.619398 1.913417 5.000000
    endloop
  endfacet
  facet normal 0.000000 -0.000000 1.000000
    outer loop
      vertex 76.913417 4.619398 5.000000
      vertex 70.380602 -1.913417 5.000000
      vertex 78.535534 3.535534 5.000000
    endloop
  endfacet
  facet normal 0.000000 -0.000000 1.000000
    outer loop
      vertex 75.000000 5.000000 5.000000
      vertex 70.380602 -1.913417 5.000000
      vertex 76.913417 4.619398 5.000000
    endloop
  endfacet
  facet normal 0.000000 -0.000000 1.000000
    outer loop
      vertex 73.086583 4.619398 5.000000
      vertex 70.380602 -1.913417 5.000000
      vertex 75.000000 5.000000 5.000000
    endloop
  endfacet
  facet normal 0.000000 -0.000000 1.000000
    outer loop
      vertex 71.464466 3.535534 5.000000
      vertex 70.380602 -1.913417 5.000000
      vertex 73.086583 4.619398 5.000000
    endloop
  endfacet
  facet normal 0.000000 -0.000000 1.000000
    outer loop
      vertex 70.380602 1.913417 5.000000
      vertex 70.380602 -1.913417 5.000000
      vertex 71.464466 3.535534 5.000000
    endloop
  endfacet
  facet normal 0.000000 0.000000 1.000000
    outer loop
      vertex 70.000000 0.000000 5.000000
      vertex 70.380602 -1.913417 5.000000
      vertex 70.380602 1.913417 5.000000
    endloop
  endfacet
endsolid OpenSCAD_Model
