solid OpenSCAD_Model
  facet normal -0.000000 -0.000000 -1.000000
    outer loop
      vertex -33.947242 -0.973071 0.000000
      vertex -33.947242 0.973071 0.000000
      vertex -33.528879 -2.873714 0.000000
    endloop
  endfacet
  facet normal 0.000000 0.000000 -1.000000
    outer loop
      vertex -33.528879 -2.873714 0.000000
      vertex -33.947242 0.973071 0.000000
      vertex -33.528879 2.873714 0.000000
    endloop
  endfacet
  facet normal 0.000000 -0.000000 -1.000000
    outer loop
      vertex -33.528879 -2.873714 0.000000
      vertex -33.528879 2.873714 0.000000
      vertex -32.711715 4.639985 0.000000
    endloop
  endfacet
  facet normal 0.000000 0.000000 -1.000000
    outer loop
      vertex -33.528879 -2.873714 0.000000
      vertex -32.711715 4.639985 0.000000
      vertex -31.533959 6.189295 0.000000
    endloop
  endfacet
  facet normal 0.000000 0.000000 -1.000000
    outer loop
      vertex -33.528879 -2.873714 0.000000
      vertex -31.533959 6.189295 0.000000
      vertex -30.050684 7.449201 0.000000
    endloop
  endfacet
  facet normal 0.000000 0.000000 -1.000000
    outer loop
      vertex -33.528879 -2.873714 0.000000
      vertex -30.050684 7.449201 0.000000
      vertex -28.331243 8.360790 0.000000
    endloop
  endfacet
  facet normal 0.000000 0.000000 -1.000000
    outer loop
      vertex -33.528879 -2.873714 0.000000
      vertex -28.331243 8.360790 0.000000
      vertex -26.456038 8.881439 0.000000
    endloop
  endfacet
  facet normal 0.000000 0.000000 -1.000000
    outer loop
      vertex -33.528879 -2.873714 0.000000
      vertex -26.456038 8.881439 0.000000
      vertex -24.512750 8.986801 0.000000
    endloop
  endfacet
  facet normal 0.000000 0.000000 -1.000000
    outer loop
      vertex -33.528879 -2.873714 0.000000
      vertex -24.512750 8.986801 0.000000
      vertex -22.592245 8.671950 0.000000
    endloop
  endfacet
  facet normal 0.000000 0.000000 -1.000000
    outer loop
      vertex -33.528879 -2.873714 0.000000
      vertex -22.592245 8.671950 0.000000
      vertex -20.784324 7.951608 0.000000
    endloop
  endfacet
  facet normal 0.000000 0.000000 -1.000000
    outer loop
      vertex -33.528879 -2.873714 0.000000
      vertex -20.784324 7.951608 0.000000
      vertex -19.173523 6.859458 0.000000
    endloop
  endfacet
  facet normal 0.000000 0.000000 -1.000000
    outer loop
      vertex -33.528879 -2.873714 0.000000
      vertex -19.173523 6.859458 0.000000
      vertex -17.835162 5.446568 0.000000
    endloop
  endfacet
  facet normal 0.000000 0.000000 -1.000000
    outer loop
      vertex -33.528879 -2.873714 0.000000
      vertex -17.835162 5.446568 0.000000
      vertex -16.831821 3.779002 0.000000
    endloop
  endfacet
  facet normal 0.000000 0.000000 -1.000000
    outer loop
      vertex -33.528879 -2.873714 0.000000
      vertex -16.831821 3.779002 0.000000
      vertex -16.210415 1.934734 0.000000
    endloop
  endfacet
  facet normal 0.000000 0.000000 -1.000000
    outer loop
      vertex -33.528879 -2.873714 0.000000
      vertex -16.210415 1.934734 0.000000
      vertex -16.000000 0.000000 0.000000
    endloop
  endfacet
  facet normal 0.000000 0.000000 -1.000000
    outer loop
      vertex -33.528879 -2.873714 0.000000
      vertex -16.000000 0.000000 0.000000
      vertex -16.210415 -1.934734 0.000000
    endloop
  endfacet
  facet normal -0.000000 0.000000 -1.000000
    outer loop
      vertex -33.528879 -2.873714 0.000000
      vertex -16.210415 -1.934734 0.000000
      vertex -16.831821 -3.779002 0.000000
    endloop
  endfacet
  facet normal 0.000000 0.000000 -1.000000
    outer loop
      vertex -33.528879 -2.873714 0.000000
      vertex -16.831821 -3.779002 0.000000
      vertex -17.835162 -5.446568 0.000000
    endloop
  endfacet
  facet normal 0.000000 0.000000 -1.000000
    outer loop
      vertex -33.528879 -2.873714 0.000000
      vertex -17.835162 -5.446568 0.000000
      vertex -19.173523 -6.859458 0.000000
    endloop
  endfacet
  facet normal 0.000000 0.000000 -1.000000
    outer loop
      vertex -33.528879 -2.873714 0.000000
      vertex -19.173523 -6.859458 0.000000
      vertex -20.784324 -7.951608 0.000000
    endloop
  endfacet
  facet normal 0.000000 0.000000 -1.000000
    outer loop
      vertex -33.528879 -2.873714 0.000000
      vertex -20.784324 -7.951608 0.000000
      vertex -22.592245 -8.671950 0.000000
    endloop
  endfacet
  facet normal 0.000000 0.000000 -1.000000
    outer loop
      vertex -33.528879 -2.873714 0.000000
      vertex -22.592245 -8.671950 0.000000
      vertex -24.512750 -8.986801 0.000000
    endloop
  endfacet
  facet normal 0.000000 0.000000 -1.000000
    outer loop
      vertex -33.528879 -2.873714 0.000000
      vertex -24.512750 -8.986801 0.000000
      vertex -26.456038 -8.881439 0.000000
    endloop
  endfacet
  facet normal 0.000000 0.000000 -1.000000
    outer loop
      vertex -33.528879 -2.873714 0.000000
      vertex -26.456038 -8.881439 0.000000
      vertex -28.331243 -8.360790 0.000000
    endloop
  endfacet
  facet normal 0.000000 0.000000 -1.000000
    outer loop
      vertex -33.528879 -2.873714 0.000000
      vertex -28.331243 -8.360790 0.000000
      vertex -30.050684 -7.449201 0.000000
    endloop
  endfacet
  facet normal 0.000000 0.000000 -1.000000
    outer loop
      vertex -33.528879 -2.873714 0.000000
      vertex -30.050684 -7.449201 0.000000
      vertex -31.533959 -6.189295 0.000000
    endloop
  endfacet
  facet normal 0.000000 0.000000 -1.000000
    outer loop
      vertex -33.528879 -2.873714 0.000000
      vertex -31.533959 -6.189295 0.000000
      vertex -32.711715 -4.639985 0.000000
    endloop
  endfacet
  facet normal -1.000000 -0.000000 -0.000000
    outer loop
      vertex -33.947242 -0.973071 0.000000
      vertex -33.947242 -0.973071 3.750000
      vertex -33.947242 0.973071 0.000000
    endloop
  endfacet
  facet normal -1.000000 0.000000 0.000000
    outer loop
      vertex -33.947242 0.973071 0.000000
      vertex -33.947242 -0.973071 3.750000
      vertex -33.947242 0.973071 3.750000
    endloop
  endfacet
  facet normal -0.976621 -0.214970 -0.000000
    outer loop
      vertex -33.947242 -0.973071 0.000000
      vertex -33.528879 -2.873714 0.000000
      vertex -33.947242 -0.973071 3.750000
    endloop
  endfacet
  facet normal -0.976621 -0.214970 0.000000
    outer loop
      vertex -33.947242 -0.973071 3.750000
      vertex -33.528879 -2.873714 0.000000
      vertex -33.528879 -2.873714 3.750000
    endloop
  endfacet
  facet normal -0.907575 -0.419889 -0.000000
    outer loop
      vertex -33.528879 -2.873714 0.000000
      vertex -32.711715 -4.639985 0.000000
      vertex -33.528879 -2.873714 3.750000
    endloop
  endfacet
  facet normal -0.907575 -0.419889 0.000000
    outer loop
      vertex -33.528879 -2.873714 3.750000
      vertex -32.711715 -4.639985 0.000000
      vertex -32.711715 -4.639985 3.750000
    endloop
  endfacet
  facet normal -0.796093 -0.605175 -0.000000
    outer loop
      vertex -32.711715 -4.639985 0.000000
      vertex -31.533959 -6.189295 0.000000
      vertex -32.711715 -4.639985 3.750000
    endloop
  endfacet
  facet normal -0.796093 -0.605175 0.000000
    outer loop
      vertex -32.711715 -4.639985 3.750000
      vertex -31.533959 -6.189295 0.000000
      vertex -31.533959 -6.189295 3.750000
    endloop
  endfacet
  facet normal -0.647387 -0.762162 0.000000
    outer loop
      vertex -31.533959 -6.189295 3.750000
      vertex -31.533959 -6.189295 0.000000
      vertex -30.050684 -7.449201 0.000000
    endloop
  endfacet
  facet normal -0.647387 -0.762162 0.000000
    outer loop
      vertex -30.050684 -7.449201 3.750000
      vertex -31.533959 -6.189295 3.750000
      vertex -30.050684 -7.449201 0.000000
    endloop
  endfacet
  facet normal -0.468408 -0.883512 0.000000
    outer loop
      vertex -30.050684 -7.449201 3.750000
      vertex -30.050684 -7.449201 0.000000
      vertex -28.331243 -8.360790 0.000000
    endloop
  endfacet
  facet normal -0.468408 -0.883512 0.000000
    outer loop
      vertex -28.331243 -8.360790 3.750000
      vertex -30.050684 -7.449201 3.750000
      vertex -28.331243 -8.360790 0.000000
    endloop
  endfacet
  facet normal -0.267529 -0.963550 0.000000
    outer loop
      vertex -28.331243 -8.360790 3.750000
      vertex -28.331243 -8.360790 0.000000
      vertex -26.456038 -8.881439 0.000000
    endloop
  endfacet
  facet normal -0.267529 -0.963550 0.000000
    outer loop
      vertex -26.456038 -8.881439 3.750000
      vertex -28.331243 -8.360790 3.750000
      vertex -26.456038 -8.881439 0.000000
    endloop
  endfacet
  facet normal -0.054139 -0.998533 0.000000
    outer loop
      vertex -26.456038 -8.881439 3.750000
      vertex -26.456038 -8.881439 0.000000
      vertex -24.512750 -8.986801 0.000000
    endloop
  endfacet
  facet normal -0.054139 -0.998533 0.000000
    outer loop
      vertex -24.512750 -8.986801 3.750000
      vertex -26.456038 -8.881439 3.750000
      vertex -24.512750 -8.986801 0.000000
    endloop
  endfacet
  facet normal 0.161782 -0.986827 0.000000
    outer loop
      vertex -24.512750 -8.986801 3.750000
      vertex -24.512750 -8.986801 0.000000
      vertex -22.592245 -8.671950 0.000000
    endloop
  endfacet
  facet normal 0.161782 -0.986827 0.000000
    outer loop
      vertex -22.592245 -8.671950 3.750000
      vertex -24.512750 -8.986801 3.750000
      vertex -22.592245 -8.671950 0.000000
    endloop
  endfacet
  facet normal 0.370138 -0.928977 0.000000
    outer loop
      vertex -22.592245 -8.671950 3.750000
      vertex -22.592245 -8.671950 0.000000
      vertex -20.784324 -7.951608 0.000000
    endloop
  endfacet
  facet normal 0.370138 -0.928977 0.000000
    outer loop
      vertex -20.784324 -7.951608 3.750000
      vertex -22.592245 -8.671950 3.750000
      vertex -20.784324 -7.951608 0.000000
    endloop
  endfacet
  facet normal 0.561187 -0.827689 0.000000
    outer loop
      vertex -20.784324 -7.951608 3.750000
      vertex -20.784324 -7.951608 0.000000
      vertex -19.173523 -6.859458 0.000000
    endloop
  endfacet
  facet normal 0.561187 -0.827689 0.000000
    outer loop
      vertex -19.173523 -6.859458 3.750000
      vertex -20.784324 -7.951608 3.750000
      vertex -19.173523 -6.859458 0.000000
    endloop
  endfacet
  facet normal 0.725995 -0.687700 0.000000
    outer loop
      vertex -19.173523 -6.859458 3.750000
      vertex -19.173523 -6.859458 0.000000
      vertex -17.835162 -5.446568 0.000000
    endloop
  endfacet
  facet normal 0.725995 -0.687700 0.000000
    outer loop
      vertex -17.835162 -5.446568 3.750000
      vertex -19.173523 -6.859458 3.750000
      vertex -17.835162 -5.446568 0.000000
    endloop
  endfacet
  facet normal 0.856857 -0.515554 0.000000
    outer loop
      vertex -17.835162 -5.446568 3.750000
      vertex -17.835162 -5.446568 0.000000
      vertex -16.831821 -3.779002 0.000000
    endloop
  endfacet
  facet normal 0.856857 -0.515554 0.000000
    outer loop
      vertex -16.831821 -3.779002 3.750000
      vertex -17.835162 -5.446568 3.750000
      vertex -16.831821 -3.779002 0.000000
    endloop
  endfacet
  facet normal 0.947653 -0.319301 0.000000
    outer loop
      vertex -16.831821 -3.779002 3.750000
      vertex -16.831821 -3.779002 0.000000
      vertex -16.210415 -1.934734 0.000000
    endloop
  endfacet
  facet normal 0.947653 -0.319301 0.000000
    outer loop
      vertex -16.210415 -1.934734 3.750000
      vertex -16.831821 -3.779002 3.750000
      vertex -16.210415 -1.934734 0.000000
    endloop
  endfacet
  facet normal 0.994138 -0.108119 0.000000
    outer loop
      vertex -16.210415 -1.934734 3.750000
      vertex -16.210415 -1.934734 0.000000
      vertex -16.000000 0.000000 0.000000
    endloop
  endfacet
  facet normal 0.994138 -0.108119 0.000000
    outer loop
      vertex -16.000000 0.000000 3.750000
      vertex -16.210415 -1.934734 3.750000
      vertex -16.000000 0.000000 0.000000
    endloop
  endfacet
  facet normal 0.994138 0.108119 0.000000
    outer loop
      vertex -16.000000 0.000000 0.000000
      vertex -16.210415 1.934734 0.000000
      vertex -16.210415 1.934734 3.750000
    endloop
  endfacet
  facet normal 0.994138 0.108119 -0.000000
    outer loop
      vertex -16.000000 0.000000 3.750000
      vertex -16.000000 0.000000 0.000000
      vertex -16.210415 1.934734 3.750000
    endloop
  endfacet
  facet normal 0.947653 0.319301 0.000000
    outer loop
      vertex -16.210415 1.934734 0.000000
      vertex -16.831821 3.779002 0.000000
      vertex -16.831821 3.779002 3.750000
    endloop
  endfacet
  facet normal 0.947653 0.319301 -0.000000
    outer loop
      vertex -16.210415 1.934734 3.750000
      vertex -16.210415 1.934734 0.000000
      vertex -16.831821 3.779002 3.750000
    endloop
  endfacet
  facet normal 0.856857 0.515554 0.000000
    outer loop
      vertex -16.831821 3.779002 0.000000
      vertex -17.835162 5.446568 0.000000
      vertex -17.835162 5.446568 3.750000
    endloop
  endfacet
  facet normal 0.856857 0.515554 -0.000000
    outer loop
      vertex -16.831821 3.779002 3.750000
      vertex -16.831821 3.779002 0.000000
      vertex -17.835162 5.446568 3.750000
    endloop
  endfacet
  facet normal 0.725995 0.687700 0.000000
    outer loop
      vertex -17.835162 5.446568 0.000000
      vertex -19.173523 6.859458 0.000000
      vertex -19.173523 6.859458 3.750000
    endloop
  endfacet
  facet normal 0.725995 0.687700 -0.000000
    outer loop
      vertex -17.835162 5.446568 3.750000
      vertex -17.835162 5.446568 0.000000
      vertex -19.173523 6.859458 3.750000
    endloop
  endfacet
  facet normal 0.561187 0.827689 0.000000
    outer loop
      vertex -20.784324 7.951608 0.000000
      vertex -20.784324 7.951608 3.750000
      vertex -19.173523 6.859458 0.000000
    endloop
  endfacet
  facet normal 0.561187 0.827689 0.000000
    outer loop
      vertex -19.173523 6.859458 0.000000
      vertex -20.784324 7.951608 3.750000
      vertex -19.173523 6.859458 3.750000
    endloop
  endfacet
  facet normal 0.370138 0.928977 0.000000
    outer loop
      vertex -22.592245 8.671950 0.000000
      vertex -22.592245 8.671950 3.750000
      vertex -20.784324 7.951608 0.000000
    endloop
  endfacet
  facet normal 0.370138 0.928977 0.000000
    outer loop
      vertex -20.784324 7.951608 0.000000
      vertex -22.592245 8.671950 3.750000
      vertex -20.784324 7.951608 3.750000
    endloop
  endfacet
  facet normal 0.161782 0.986827 0.000000
    outer loop
      vertex -24.512750 8.986801 0.000000
      vertex -24.512750 8.986801 3.750000
      vertex -22.592245 8.671950 0.000000
    endloop
  endfacet
  facet normal 0.161782 0.986827 0.000000
    outer loop
      vertex -22.592245 8.671950 0.000000
      vertex -24.512750 8.986801 3.750000
      vertex -22.592245 8.671950 3.750000
    endloop
  endfacet
  facet normal -0.054139 0.998533 0.000000
    outer loop
      vertex -26.456038 8.881439 0.000000
      vertex -26.456038 8.881439 3.750000
      vertex -24.512750 8.986801 0.000000
    endloop
  endfacet
  facet normal -0.054139 0.998533 0.000000
    outer loop
      vertex -24.512750 8.986801 0.000000
      vertex -26.456038 8.881439 3.750000
      vertex -24.512750 8.986801 3.750000
    endloop
  endfacet
  facet normal -0.267529 0.963550 0.000000
    outer loop
      vertex -28.331243 8.360790 0.000000
      vertex -28.331243 8.360790 3.750000
      vertex -26.456038 8.881439 0.000000
    endloop
  endfacet
  facet normal -0.267529 0.963550 0.000000
    outer loop
      vertex -26.456038 8.881439 0.000000
      vertex -28.331243 8.360790 3.750000
      vertex -26.456038 8.881439 3.750000
    endloop
  endfacet
  facet normal -0.468408 0.883512 0.000000
    outer loop
      vertex -30.050684 7.449201 0.000000
      vertex -30.050684 7.449201 3.750000
      vertex -28.331243 8.360790 0.000000
    endloop
  endfacet
  facet normal -0.468408 0.883512 0.000000
    outer loop
      vertex -28.331243 8.360790 0.000000
      vertex -30.050684 7.449201 3.750000
      vertex -28.331243 8.360790 3.750000
    endloop
  endfacet
  facet normal -0.647387 0.762162 0.000000
    outer loop
      vertex -31.533959 6.189295 0.000000
      vertex -31.533959 6.189295 3.750000
      vertex -30.050684 7.449201 0.000000
    endloop
  endfacet
  facet normal -0.647387 0.762162 0.000000
    outer loop
      vertex -30.050684 7.449201 0.000000
      vertex -31.533959 6.189295 3.750000
      vertex -30.050684 7.449201 3.750000
    endloop
  endfacet
  facet normal -0.796093 0.605175 0.000000
    outer loop
      vertex -32.711715 4.639985 0.000000
      vertex -32.711715 4.639985 3.750000
      vertex -31.533959 6.189295 0.000000
    endloop
  endfacet
  facet normal -0.796093 0.605175 0.000000
    outer loop
      vertex -31.533959 6.189295 0.000000
      vertex -32.711715 4.639985 3.750000
      vertex -31.533959 6.189295 3.750000
    endloop
  endfacet
  facet normal -0.907575 0.419889 0.000000
    outer loop
      vertex -33.528879 2.873714 0.000000
      vertex -33.528879 2.873714 3.750000
      vertex -32.711715 4.639985 0.000000
    endloop
  endfacet
  facet normal -0.907575 0.419889 0.000000
    outer loop
      vertex -32.711715 4.639985 0.000000
      vertex -33.528879 2.873714 3.750000
      vertex -32.711715 4.639985 3.750000
    endloop
  endfacet
  facet normal -0.976621 0.214970 0.000000
    outer loop
      vertex -33.947242 0.973071 0.000000
      vertex -33.947242 0.973071 3.750000
      vertex -33.528879 2.873714 0.000000
    endloop
  endfacet
  facet normal -0.976621 0.214970 0.000000
    outer loop
      vertex -33.528879 2.873714 0.000000
      vertex -33.947242 0.973071 3.750000
      vertex -33.528879 2.873714 3.750000
    endloop
  endfacet
  facet normal 0.000000 -0.000000 1.000000
    outer loop
      vertex -33.947242 0.973071 3.750000
      vertex -33.947242 -0.973071 3.750000
      vertex -33.528879 -2.873714 3.750000
    endloop
  endfacet
  facet normal 0.000000 0.000000 1.000000
    outer loop
      vertex -31.533959 -6.189295 3.750000
      vertex -33.947242 0.973071 3.750000
      vertex -32.711715 -4.639985 3.750000
    endloop
  endfacet
  facet normal 0.000000 0.000000 1.000000
    outer loop
      vertex -32.711715 -4.639985 3.750000
      vertex -33.947242 0.973071 3.750000
      vertex -33.528879 -2.873714 3.750000
    endloop
  endfacet
  facet normal 0.000000 0.000000 1.000000
    outer loop
      vertex -30.050684 -7.449201 3.750000
      vertex -33.947242 0.973071 3.750000
      vertex -31.533959 -6.189295 3.750000
    endloop
  endfacet
  facet normal 0.000000 0.000000 1.000000
    outer loop
      vertex -28.331243 -8.360790 3.750000
      vertex -33.947242 0.973071 3.750000
      vertex -30.050684 -7.449201 3.750000
    endloop
  endfacet
  facet normal 0.000000 0.000000 1.000000
    outer loop
      vertex -26.456038 -8.881439 3.750000
      vertex -33.947242 0.973071 3.750000
      vertex -28.331243 -8.360790 3.750000
    endloop
  endfacet
  facet normal 0.000000 0.000000 1.000000
    outer loop
      vertex -24.512750 -8.986801 3.750000
      vertex -33.947242 0.973071 3.750000
      vertex -26.456038 -8.881439 3.750000
    endloop
  endfacet
  facet normal -0.000000 0.000000 1.000000
    outer loop
      vertex -22.592245 -8.671950 3.750000
      vertex -33.947242 0.973071 3.750000
      vertex -24.512750 -8.986801 3.750000
    endloop
  endfacet
  facet normal -0.000000 -0.000000 1.000000
    outer loop
      vertex -27.250000 -3.897114 3.750000
      vertex -33.947242 0.973071 3.750000
      vertex -22.592245 -8.671950 3.750000
    endloop
  endfacet
  facet normal -0.000000 0.000000 1.000000
    outer loop
      vertex -28.640576 2.645034 3.750000
      vertex -27.250000 3.897114 3.750000
      vertex -33.947242 0.973071 3.750000
    endloop
  endfacet
  facet normal 0.000000 0.000000 1.000000
    outer loop
      vertex -23.609424 4.279754 3.750000
      vertex -21.988912 3.344152 3.750000
      vertex -17.835162 5.446568 3.750000
    endloop
  endfacet
  facet normal 0.000000 0.000000 1.000000
    outer loop
      vertex -25.470378 4.475349 3.750000
      vertex -23.609424 4.279754 3.750000
      vertex -19.173523 6.859458 3.750000
    endloop
  endfacet
  facet normal 0.000000 -0.000000 1.000000
    outer loop
      vertex -22.592245 8.671950 3.750000
      vertex -33.947242 0.973071 3.750000
      vertex -20.784324 7.951608 3.750000
    endloop
  endfacet
  facet normal 0.000000 -0.000000 1.000000
    outer loop
      vertex -24.512750 8.986801 3.750000
      vertex -33.947242 0.973071 3.750000
      vertex -22.592245 8.671950 3.750000
    endloop
  endfacet
  facet normal 0.000000 -0.000000 1.000000
    outer loop
      vertex -26.456038 8.881439 3.750000
      vertex -33.947242 0.973071 3.750000
      vertex -24.512750 8.986801 3.750000
    endloop
  endfacet
  facet normal 0.000000 -0.000000 1.000000
    outer loop
      vertex -28.331243 8.360790 3.750000
      vertex -33.947242 0.973071 3.750000
      vertex -26.456038 8.881439 3.750000
    endloop
  endfacet
  facet normal 0.000000 -0.000000 1.000000
    outer loop
      vertex -30.050684 7.449201 3.750000
      vertex -33.947242 0.973071 3.750000
      vertex -28.331243 8.360790 3.750000
    endloop
  endfacet
  facet normal 0.000000 -0.000000 1.000000
    outer loop
      vertex -31.533959 6.189295 3.750000
      vertex -33.947242 0.973071 3.750000
      vertex -30.050684 7.449201 3.750000
    endloop
  endfacet
  facet normal 0.000000 -0.000000 1.000000
    outer loop
      vertex -32.711715 4.639985 3.750000
      vertex -33.947242 0.973071 3.750000
      vertex -31.533959 6.189295 3.750000
    endloop
  endfacet
  facet normal 0.000000 -0.000000 1.000000
    outer loop
      vertex -33.528879 2.873714 3.750000
      vertex -33.947242 0.973071 3.750000
      vertex -32.711715 4.639985 3.750000
    endloop
  endfacet
  facet normal -0.000000 -0.000000 1.000000
    outer loop
      vertex -25.470378 -4.475349 3.750000
      vertex -27.250000 -3.897114 3.750000
      vertex -20.784324 -7.951608 3.750000
    endloop
  endfacet
  facet normal 0.000000 -0.000000 1.000000
    outer loop
      vertex -20.500000 0.000000 3.750000
      vertex -20.889045 -1.830315 3.750000
      vertex -16.210415 -1.934734 3.750000
    endloop
  endfacet
  facet normal 0.000000 0.000000 1.000000
    outer loop
      vertex -21.988912 3.344152 3.750000
      vertex -20.889045 1.830315 3.750000
      vertex -16.831821 3.779002 3.750000
    endloop
  endfacet
  facet normal 0.000000 0.000000 1.000000
    outer loop
      vertex -20.889045 1.830315 3.750000
      vertex -20.500000 0.000000 3.750000
      vertex -16.000000 0.000000 3.750000
    endloop
  endfacet
  facet normal 0.000000 -0.000000 1.000000
    outer loop
      vertex -20.784324 7.951608 3.750000
      vertex -27.250000 3.897114 3.750000
      vertex -19.173523 6.859458 3.750000
    endloop
  endfacet
  facet normal 0.000000 0.000000 1.000000
    outer loop
      vertex -20.784324 7.951608 3.750000
      vertex -33.947242 0.973071 3.750000
      vertex -27.250000 3.897114 3.750000
    endloop
  endfacet
  facet normal 0.000000 0.000000 1.000000
    outer loop
      vertex -27.250000 3.897114 3.750000
      vertex -25.470378 4.475349 3.750000
      vertex -19.173523 6.859458 3.750000
    endloop
  endfacet
  facet normal 0.000000 -0.000000 1.000000
    outer loop
      vertex -19.173523 6.859458 3.750000
      vertex -23.609424 4.279754 3.750000
      vertex -17.835162 5.446568 3.750000
    endloop
  endfacet
  facet normal 0.000000 -0.000000 1.000000
    outer loop
      vertex -17.835162 5.446568 3.750000
      vertex -21.988912 3.344152 3.750000
      vertex -16.831821 3.779002 3.750000
    endloop
  endfacet
  facet normal 0.000000 -0.000000 1.000000
    outer loop
      vertex -16.831821 3.779002 3.750000
      vertex -20.889045 1.830315 3.750000
      vertex -16.210415 1.934734 3.750000
    endloop
  endfacet
  facet normal 0.000000 0.000000 1.000000
    outer loop
      vertex -16.000000 0.000000 3.750000
      vertex -20.500000 0.000000 3.750000
      vertex -16.210415 -1.934734 3.750000
    endloop
  endfacet
  facet normal 0.000000 0.000000 1.000000
    outer loop
      vertex -20.889045 1.830315 3.750000
      vertex -16.000000 0.000000 3.750000
      vertex -16.210415 1.934734 3.750000
    endloop
  endfacet
  facet normal -0.000000 0.000000 1.000000
    outer loop
      vertex -16.210415 -1.934734 3.750000
      vertex -20.889045 -1.830315 3.750000
      vertex -16.831821 -3.779002 3.750000
    endloop
  endfacet
  facet normal -0.000000 0.000000 1.000000
    outer loop
      vertex -16.831821 -3.779002 3.750000
      vertex -21.988912 -3.344152 3.750000
      vertex -17.835162 -5.446568 3.750000
    endloop
  endfacet
  facet normal 0.000000 0.000000 1.000000
    outer loop
      vertex -29.401664 0.935603 3.750000
      vertex -28.640576 2.645034 3.750000
      vertex -33.947242 0.973071 3.750000
    endloop
  endfacet
  facet normal -0.000000 0.000000 1.000000
    outer loop
      vertex -17.835162 -5.446568 3.750000
      vertex -23.609424 -4.279754 3.750000
      vertex -19.173523 -6.859458 3.750000
    endloop
  endfacet
  facet normal -0.000000 0.000000 1.000000
    outer loop
      vertex -19.173523 -6.859458 3.750000
      vertex -25.470378 -4.475349 3.750000
      vertex -20.784324 -7.951608 3.750000
    endloop
  endfacet
  facet normal 0.000000 -0.000000 1.000000
    outer loop
      vertex -20.889045 -1.830315 3.750000
      vertex -21.988912 -3.344152 3.750000
      vertex -16.831821 -3.779002 3.750000
    endloop
  endfacet
  facet normal -0.000000 0.000000 1.000000
    outer loop
      vertex -20.784324 -7.951608 3.750000
      vertex -27.250000 -3.897114 3.750000
      vertex -22.592245 -8.671950 3.750000
    endloop
  endfacet
  facet normal -0.000000 -0.000000 1.000000
    outer loop
      vertex -28.640576 -2.645034 3.750000
      vertex -33.947242 0.973071 3.750000
      vertex -27.250000 -3.897114 3.750000
    endloop
  endfacet
  facet normal 0.000000 -0.000000 1.000000
    outer loop
      vertex -21.988912 -3.344152 3.750000
      vertex -23.609424 -4.279754 3.750000
      vertex -17.835162 -5.446568 3.750000
    endloop
  endfacet
  facet normal 0.000000 0.000000 1.000000
    outer loop
      vertex -28.640576 -2.645034 3.750000
      vertex -29.401664 -0.935603 3.750000
      vertex -33.947242 0.973071 3.750000
    endloop
  endfacet
  facet normal 0.000000 -0.000000 1.000000
    outer loop
      vertex -23.609424 -4.279754 3.750000
      vertex -25.470378 -4.475349 3.750000
      vertex -19.173523 -6.859458 3.750000
    endloop
  endfacet
  facet normal 0.000000 0.000000 1.000000
    outer loop
      vertex -29.401664 -0.935603 3.750000
      vertex -29.401664 0.935603 3.750000
      vertex -33.947242 0.973071 3.750000
    endloop
  endfacet
  facet normal -1.000000 -0.000000 -0.000000
    outer loop
      vertex -29.401664 -0.935603 3.750000
      vertex -29.401664 -0.935603 37.500000
      vertex -29.401664 0.935603 3.750000
    endloop
  endfacet
  facet normal -1.000000 0.000000 0.000000
    outer loop
      vertex -29.401664 0.935603 3.750000
      vertex -29.401664 -0.935603 37.500000
      vertex -29.401664 0.935603 37.500000
    endloop
  endfacet
  facet normal -0.913545 -0.406737 -0.000000
    outer loop
      vertex -29.401664 -0.935603 3.750000
      vertex -28.640576 -2.645034 3.750000
      vertex -29.401664 -0.935603 37.500000
    endloop
  endfacet
  facet normal -0.913545 -0.406737 0.000000
    outer loop
      vertex -29.401664 -0.935603 37.500000
      vertex -28.640576 -2.645034 3.750000
      vertex -28.640576 -2.645034 37.500000
    endloop
  endfacet
  facet normal -0.669131 -0.743145 0.000000
    outer loop
      vertex -28.640576 -2.645034 37.500000
      vertex -28.640576 -2.645034 3.750000
      vertex -27.250000 -3.897114 3.750000
    endloop
  endfacet
  facet normal -0.669131 -0.743145 0.000000
    outer loop
      vertex -27.250000 -3.897114 37.500000
      vertex -28.640576 -2.645034 37.500000
      vertex -27.250000 -3.897114 3.750000
    endloop
  endfacet
  facet normal -0.309017 -0.951056 0.000000
    outer loop
      vertex -27.250000 -3.897114 37.500000
      vertex -27.250000 -3.897114 3.750000
      vertex -25.470378 -4.475349 3.750000
    endloop
  endfacet
  facet normal -0.309017 -0.951056 0.000000
    outer loop
      vertex -25.470378 -4.475349 37.500000
      vertex -27.250000 -3.897114 37.500000
      vertex -25.470378 -4.475349 3.750000
    endloop
  endfacet
  facet normal 0.104529 -0.994522 0.000000
    outer loop
      vertex -25.470378 -4.475349 37.500000
      vertex -25.470378 -4.475349 3.750000
      vertex -23.609424 -4.279754 3.750000
    endloop
  endfacet
  facet normal 0.104529 -0.994522 0.000000
    outer loop
      vertex -23.609424 -4.279754 37.500000
      vertex -25.470378 -4.475349 37.500000
      vertex -23.609424 -4.279754 3.750000
    endloop
  endfacet
  facet normal 0.500000 -0.866026 0.000000
    outer loop
      vertex -23.609424 -4.279754 37.500000
      vertex -23.609424 -4.279754 3.750000
      vertex -21.988912 -3.344152 3.750000
    endloop
  endfacet
  facet normal 0.500000 -0.866026 0.000000
    outer loop
      vertex -21.988912 -3.344152 37.500000
      vertex -23.609424 -4.279754 37.500000
      vertex -21.988912 -3.344152 3.750000
    endloop
  endfacet
  facet normal 0.809017 -0.587785 0.000000
    outer loop
      vertex -21.988912 -3.344152 37.500000
      vertex -21.988912 -3.344152 3.750000
      vertex -20.889045 -1.830315 3.750000
    endloop
  endfacet
  facet normal 0.809017 -0.587785 0.000000
    outer loop
      vertex -20.889045 -1.830315 37.500000
      vertex -21.988912 -3.344152 37.500000
      vertex -20.889045 -1.830315 3.750000
    endloop
  endfacet
  facet normal 0.978148 -0.207911 0.000000
    outer loop
      vertex -20.889045 -1.830315 37.500000
      vertex -20.889045 -1.830315 3.750000
      vertex -20.500000 0.000000 3.750000
    endloop
  endfacet
  facet normal 0.978148 -0.207911 0.000000
    outer loop
      vertex -20.500000 0.000000 37.500000
      vertex -20.889045 -1.830315 37.500000
      vertex -20.500000 0.000000 3.750000
    endloop
  endfacet
  facet normal 0.978148 0.207911 0.000000
    outer loop
      vertex -20.500000 0.000000 3.750000
      vertex -20.889045 1.830315 3.750000
      vertex -20.889045 1.830315 37.500000
    endloop
  endfacet
  facet normal 0.978148 0.207911 -0.000000
    outer loop
      vertex -20.500000 0.000000 37.500000
      vertex -20.500000 0.000000 3.750000
      vertex -20.889045 1.830315 37.500000
    endloop
  endfacet
  facet normal 0.809017 0.587785 0.000000
    outer loop
      vertex -20.889045 1.830315 3.750000
      vertex -21.988912 3.344152 3.750000
      vertex -21.988912 3.344152 37.500000
    endloop
  endfacet
  facet normal 0.809017 0.587785 -0.000000
    outer loop
      vertex -20.889045 1.830315 37.500000
      vertex -20.889045 1.830315 3.750000
      vertex -21.988912 3.344152 37.500000
    endloop
  endfacet
  facet normal 0.500000 0.866026 0.000000
    outer loop
      vertex -23.609424 4.279754 3.750000
      vertex -23.609424 4.279754 37.500000
      vertex -21.988912 3.344152 3.750000
    endloop
  endfacet
  facet normal 0.500000 0.866026 0.000000
    outer loop
      vertex -21.988912 3.344152 3.750000
      vertex -23.609424 4.279754 37.500000
      vertex -21.988912 3.344152 37.500000
    endloop
  endfacet
  facet normal 0.104529 0.994522 0.000000
    outer loop
      vertex -25.470378 4.475349 3.750000
      vertex -25.470378 4.475349 37.500000
      vertex -23.609424 4.279754 3.750000
    endloop
  endfacet
  facet normal 0.104529 0.994522 0.000000
    outer loop
      vertex -23.609424 4.279754 3.750000
      vertex -25.470378 4.475349 37.500000
      vertex -23.609424 4.279754 37.500000
    endloop
  endfacet
  facet normal -0.309017 0.951056 0.000000
    outer loop
      vertex -27.250000 3.897114 3.750000
      vertex -27.250000 3.897114 37.500000
      vertex -25.470378 4.475349 3.750000
    endloop
  endfacet
  facet normal -0.309017 0.951056 0.000000
    outer loop
      vertex -25.470378 4.475349 3.750000
      vertex -27.250000 3.897114 37.500000
      vertex -25.470378 4.475349 37.500000
    endloop
  endfacet
  facet normal -0.669131 0.743145 0.000000
    outer loop
      vertex -28.640576 2.645034 3.750000
      vertex -28.640576 2.645034 37.500000
      vertex -27.250000 3.897114 3.750000
    endloop
  endfacet
  facet normal -0.669131 0.743145 0.000000
    outer loop
      vertex -27.250000 3.897114 3.750000
      vertex -28.640576 2.645034 37.500000
      vertex -27.250000 3.897114 37.500000
    endloop
  endfacet
  facet normal -0.913545 0.406737 0.000000
    outer loop
      vertex -29.401664 0.935603 3.750000
      vertex -29.401664 0.935603 37.500000
      vertex -28.640576 2.645034 3.750000
    endloop
  endfacet
  facet normal -0.913545 0.406737 0.000000
    outer loop
      vertex -28.640576 2.645034 3.750000
      vertex -29.401664 0.935603 37.500000
      vertex -28.640576 2.645034 37.500000
    endloop
  endfacet
  facet normal 0.000000 -0.000000 1.000000
    outer loop
      vertex -29.401664 0.935603 37.500000
      vertex -29.401664 -0.935603 37.500000
      vertex -28.640576 -2.645034 37.500000
    endloop
  endfacet
  facet normal 0.000000 0.000000 1.000000
    outer loop
      vertex -25.470378 -4.475349 37.500000
      vertex -29.401664 0.935603 37.500000
      vertex -27.250000 -3.897114 37.500000
    endloop
  endfacet
  facet normal 0.000000 0.000000 1.000000
    outer loop
      vertex -27.250000 -3.897114 37.500000
      vertex -29.401664 0.935603 37.500000
      vertex -28.640576 -2.645034 37.500000
    endloop
  endfacet
  facet normal -0.000000 0.000000 1.000000
    outer loop
      vertex -23.609424 -4.279754 37.500000
      vertex -29.401664 0.935603 37.500000
      vertex -25.470378 -4.475349 37.500000
    endloop
  endfacet
  facet normal -0.000000 0.000000 1.000000
    outer loop
      vertex -21.988912 -3.344152 37.500000
      vertex -29.401664 0.935603 37.500000
      vertex -23.609424 -4.279754 37.500000
    endloop
  endfacet
  facet normal -0.000000 0.000000 1.000000
    outer loop
      vertex -20.889045 -1.830315 37.500000
      vertex -29.401664 0.935603 37.500000
      vertex -21.988912 -3.344152 37.500000
    endloop
  endfacet
  facet normal -0.000000 0.000000 1.000000
    outer loop
      vertex -20.500000 0.000000 37.500000
      vertex -29.401664 0.935603 37.500000
      vertex -20.889045 -1.830315 37.500000
    endloop
  endfacet
  facet normal 0.000000 -0.000000 1.000000
    outer loop
      vertex -20.889045 1.830315 37.500000
      vertex -29.401664 0.935603 37.500000
      vertex -20.500000 0.000000 37.500000
    endloop
  endfacet
  facet normal 0.000000 -0.000000 1.000000
    outer loop
      vertex -21.988912 3.344152 37.500000
      vertex -29.401664 0.935603 37.500000
      vertex -20.889045 1.830315 37.500000
    endloop
  endfacet
  facet normal 0.000000 -0.000000 1.000000
    outer loop
      vertex -23.609424 4.279754 37.500000
      vertex -29.401664 0.935603 37.500000
      vertex -21.988912 3.344152 37.500000
    endloop
  endfacet
  facet normal 0.000000 -0.000000 1.000000
    outer loop
      vertex -25.470378 4.475349 37.500000
      vertex -29.401664 0.935603 37.500000
      vertex -23.609424 4.279754 37.500000
    endloop
  endfacet
  facet normal 0.000000 -0.000000 1.000000
    outer loop
      vertex -27.250000 3.897114 37.500000
      vertex -29.401664 0.935603 37.500000
      vertex -25.470378 4.475349 37.500000
    endloop
  endfacet
  facet normal 0.000000 -0.000000 1.000000
    outer loop
      vertex -28.640576 2.645034 37.500000
      vertex -29.401664 0.935603 37.500000
      vertex -27.250000 3.897114 37.500000
    endloop
  endfacet
endsolid OpenSCAD_Model
